<svg version="1.1" id="Layer_1" xmlns="http://www.w3.org/2000/svg" xmlns:xlink="http://www.w3.org/1999/xlink" x="0px" y="0px"
	 width="100%" viewBox="0 0 112 118" enable-background="new 0 0 112 118" xml:space="preserve">
<path fill="#0E1725" opacity="1.000000" stroke="none" 
	d="
M113.000000,45.000000 
	C113.000000,70.000000 113.000000,94.499992 113.000000,119.000000 
	C75.666672,119.000000 38.333347,119.000000 1.000017,119.000000 
	C1.000011,79.666679 1.000011,40.333359 1.000005,1.000027 
	C38.333317,1.000018 75.666634,1.000018 112.999977,1.000009 
	C113.000000,15.500000 113.000000,30.000000 113.000000,45.000000 
M100.565880,25.960972 
	C100.741837,25.653511 100.917793,25.346050 101.015678,24.990974 
	C101.015678,24.990974 101.077560,25.057785 101.708069,24.857855 
	C102.169891,23.915634 102.631706,22.973413 103.020981,22.025686 
	C103.020981,22.025686 103.023819,22.098383 103.566521,21.966913 
	C103.743141,21.655087 103.919762,21.343262 104.020050,20.999666 
	C104.020050,20.999666 104.069870,21.065651 104.591949,20.943680 
	C104.776970,20.647099 104.961990,20.350517 105.786095,19.795835 
	C110.051712,15.510595 110.239845,8.652599 105.928802,3.967286 
	C105.332741,3.319479 103.404053,3.897853 101.733406,4.488965 
	C97.429817,9.323775 93.126228,14.158587 88.167236,18.990759 
	C87.728218,18.983957 87.289200,18.977156 86.925499,18.233578 
	C86.891922,16.607477 87.280495,15.438683 84.455978,15.340687 
	C79.664879,15.174463 74.926361,13.724117 70.147751,12.920538 
	C58.179626,10.907960 46.144096,9.234704 34.264503,6.797141 
	C30.984035,6.124024 28.825256,7.411232 27.794453,9.215877 
	C26.158735,12.079543 21.349190,13.405178 22.673504,18.479164 
	C22.121099,19.272081 21.568695,20.065001 20.370457,20.963871 
	C19.934517,20.958021 19.498575,20.952171 18.775961,20.205219 
	C16.549526,20.375696 14.323092,20.546173 11.476179,20.780590 
	C9.623282,22.185303 7.770387,23.590015 5.399594,25.238491 
	C4.923341,25.828856 4.447089,26.419220 4.012125,27.011229 
	C4.012125,27.011229 4.006733,26.970261 3.372036,27.442234 
	C3.297266,28.821356 3.222497,30.200478 3.149575,31.545517 
	C6.741368,32.128132 9.870162,32.635647 13.102546,33.785263 
	C14.102750,34.868473 15.102954,35.951683 15.995396,37.799751 
	C16.342457,39.500645 16.689520,41.201534 17.032990,43.584473 
	C17.625544,44.389446 18.218096,45.194424 19.127455,46.703522 
	C21.754166,53.901073 24.329288,61.117981 27.021404,68.290985 
	C29.995399,76.215027 33.076611,84.098824 35.974648,92.706566 
	C36.618542,93.812874 37.262432,94.919174 37.951637,96.026573 
	C37.951637,96.026573 37.928955,96.065811 37.968430,96.838280 
	C40.121494,102.876343 42.222645,108.934006 44.486553,114.930222 
	C44.806637,115.778008 45.919960,116.326309 46.666126,117.013237 
	C47.082710,116.326424 47.499290,115.639610 48.281509,114.393906 
	C49.860767,112.258904 51.440022,110.123901 53.845490,107.951141 
	C54.199062,105.977119 54.552639,104.003090 55.537533,102.014565 
	C55.958485,102.009232 56.379436,102.003891 57.115799,102.672722 
	C60.605957,103.062950 61.665138,100.909958 62.389847,97.939751 
	C62.389847,97.939751 62.781223,97.911392 63.494854,97.871910 
	C67.561317,93.676285 71.657913,89.508629 75.631493,85.226799 
	C75.919418,84.916542 75.312569,83.775940 75.176498,82.321953 
	C78.516678,78.170784 81.856865,74.019623 85.628883,69.769020 
	C85.867584,69.574768 86.021103,69.327606 86.017807,69.018547 
	C86.017807,69.018547 86.015129,69.090691 86.560028,68.973427 
	C86.736229,68.662918 86.912430,68.352409 87.019295,68.020569 
	C87.019295,68.020569 87.037621,68.090752 87.575684,67.971504 
	C87.746208,67.663094 87.916733,67.354683 88.001221,66.999390 
	C88.001221,66.999390 88.085022,67.047256 88.737473,66.849777 
	C90.849915,63.912220 92.962364,60.974663 95.007286,58.022114 
	C95.007286,58.022114 95.023834,58.089264 95.416443,57.895836 
	C95.705795,57.748230 95.856689,57.512119 96.205254,56.576214 
	C97.483833,54.694759 98.762413,52.813305 100.673164,50.949818 
	C101.134026,50.659473 101.594894,50.369129 102.024414,50.024017 
	C102.024414,50.024017 102.079926,50.054020 102.726784,49.846912 
	C108.513496,44.059242 108.513496,44.059242 104.038628,36.150482 
	C103.291771,33.914227 103.918747,30.639391 99.998146,30.025223 
	C99.988144,28.987404 99.978142,27.949587 100.039474,26.472370 
	C100.039474,26.472370 100.094856,26.030699 100.022949,26.024754 
	C100.022949,26.024754 100.031029,26.096455 100.565880,25.960972 
z"/>
<path fill="#0F1721" opacity="1.000000" stroke="none" 
	d="
M56.800388,101.998550 
	C56.379436,102.003891 55.958485,102.009232 54.876507,101.838959 
	C53.406647,99.038658 54.972099,94.928757 50.014282,94.546173 
	C50.005081,93.446571 49.974380,92.713638 49.982891,91.578072 
	C48.687107,86.589050 47.407745,81.984886 45.955170,77.436043 
	C45.745190,76.778473 44.703510,76.386490 44.040283,75.476044 
	C41.081722,67.029366 38.129589,58.978252 35.119801,50.537563 
	C33.757191,47.083580 32.452240,44.019169 31.084448,40.564171 
	C31.021608,39.229885 31.021608,38.286182 31.021608,37.568710 
	C29.433224,37.568710 28.274786,37.610394 27.120247,37.561005 
	C23.447104,37.403870 19.775410,37.212830 16.103157,37.034889 
	C15.102954,35.951683 14.102750,34.868473 13.324078,33.400101 
	C14.359346,33.032219 15.173083,33.049496 16.378061,33.191643 
	C19.857450,33.712502 22.964472,33.998669 26.030123,34.525551 
	C34.434826,35.970036 42.837036,37.438374 51.210461,39.051796 
	C55.858841,39.947464 60.447659,41.152222 65.213333,42.529980 
	C65.576630,44.201813 65.789917,45.561329 65.943550,47.270164 
	C64.170082,49.782188 62.371719,51.884972 60.778423,54.133091 
	C59.991615,55.243271 58.833885,56.854164 59.138783,57.836697 
	C60.216576,61.309860 61.853508,64.609505 63.458847,68.400955 
	C65.066841,67.146446 66.284561,66.512657 67.071869,65.532982 
	C74.432823,56.373566 81.719978,47.154842 89.381927,37.982235 
	C91.176559,36.365482 92.617752,34.719780 94.025528,33.047745 
	C93.992111,33.021412 94.030792,33.097225 94.299362,33.031723 
	C94.743187,32.657978 94.918442,32.349739 95.058342,32.032761 
	C95.022980,32.024025 95.039574,32.094955 95.306595,32.028969 
	C95.747330,31.655315 95.921051,31.347649 96.055984,31.013796 
	C96.017204,30.987608 96.080940,31.054703 96.399223,30.954796 
	C97.504036,29.589428 98.290565,28.323967 99.043320,27.040787 
	C99.009552,27.023069 99.032249,27.095886 99.268227,27.060040 
	C99.504204,27.024195 99.968140,26.911768 99.968140,26.911768 
	C99.978142,27.949587 99.988144,28.987404 99.673569,30.560169 
	C96.913139,34.757580 94.477295,38.420040 91.839783,42.335678 
	C90.418083,44.077591 89.198036,45.566322 87.705643,47.053833 
	C87.259346,47.353329 87.085419,47.654045 86.952454,47.980000 
	C86.993416,48.005238 86.918594,47.947510 86.596268,48.041416 
	C82.541916,53.064075 78.809906,57.992825 74.939041,63.184898 
	C74.218483,63.983948 73.636780,64.519676 72.769089,65.039391 
	C72.291901,65.334198 72.100693,65.645012 71.948685,65.982376 
	C71.987885,66.008926 71.919098,65.946968 71.600693,66.048264 
	C69.835129,68.073952 68.387970,69.998337 66.966248,71.957520 
	C66.991676,71.992310 66.926834,71.935432 66.556396,71.953979 
	C60.920742,74.960648 66.044762,76.703598 67.284805,79.201775 
	C68.209663,81.610374 68.871170,83.760826 69.743179,86.595589 
	C71.734352,85.272400 73.428047,84.146896 75.121742,83.021393 
	C75.312569,83.775940 75.919418,84.916542 75.631493,85.226799 
	C71.657913,89.508629 67.561317,93.676285 63.171688,97.701385 
	C62.848522,97.530853 62.868999,97.144913 63.049072,96.859680 
	C64.146454,95.057961 65.063759,93.541473 66.377502,92.025314 
	C67.123695,91.151283 67.992912,90.073616 67.742622,89.434105 
	C65.314049,83.228874 62.697834,77.097076 60.054916,70.552261 
	C57.666393,64.433792 55.358112,58.707394 53.028896,52.571636 
	C52.136784,43.776493 50.675945,41.443939 43.520729,40.389355 
	C40.915123,40.005322 37.950161,42.059471 35.173248,43.368946 
	C35.814114,44.989613 36.488361,46.217915 37.037895,47.499680 
	C39.695358,53.698151 42.319302,59.910995 44.963547,66.521294 
	C46.673401,70.933792 48.374836,74.943741 50.307320,79.194672 
	C50.719383,80.304581 50.900394,81.173508 51.029881,82.439545 
	C51.068615,83.471031 51.071556,84.133102 51.262691,84.735474 
	C53.090416,90.495598 54.949970,96.245628 56.800388,101.998550 
z"/>
<path fill="#3F6734" opacity="1.000000" stroke="none" 
	d="
M89.028496,37.953285 
	C81.719978,47.154842 74.432823,56.373566 67.071869,65.532982 
	C66.284561,66.512657 65.066841,67.146446 63.458847,68.400955 
	C61.853508,64.609505 60.216576,61.309860 59.138783,57.836697 
	C58.833885,56.854164 59.991615,55.243271 60.778423,54.133091 
	C62.371719,51.884972 64.170082,49.782188 66.287415,47.221657 
	C71.185165,41.462250 75.767189,36.171108 80.143456,30.714924 
	C83.183044,26.925272 85.939621,22.908630 88.822639,18.993399 
	C93.126228,14.158587 97.429817,9.323775 102.280136,4.256612 
	C107.809875,8.389230 108.120125,13.468741 103.628059,20.317638 
	C103.659416,20.786453 103.864647,20.926052 104.069870,21.065651 
	C104.069870,21.065651 104.020050,20.999666 103.653435,20.801857 
	C103.199150,21.102161 103.111488,21.600273 103.023819,22.098383 
	C103.023819,22.098383 103.020981,22.025686 102.657730,21.813162 
	C101.888847,22.753021 101.483208,23.905403 101.077560,25.057785 
	C101.077560,25.057785 101.015678,24.990974 100.637161,24.757626 
	C100.182770,25.048336 100.106895,25.572395 100.031021,26.096455 
	C100.031029,26.096455 100.022949,26.024754 99.641052,25.810368 
	C99.183525,26.095951 99.107887,26.595919 99.032249,27.095886 
	C99.032249,27.095886 99.009552,27.023069 98.731308,26.722441 
	C97.662354,27.966108 96.871643,29.510406 96.080940,31.054703 
	C96.080940,31.054703 96.017204,30.987608 95.623589,30.749931 
	C95.166504,31.039820 95.103035,31.567389 95.039574,32.094955 
	C95.039574,32.094955 95.022980,32.024025 94.643318,31.767506 
	C94.186035,32.039730 94.108414,32.568478 94.030792,33.097225 
	C94.030792,33.097225 93.992111,33.021412 93.813744,32.698227 
	C92.099747,34.234459 90.564125,36.093872 89.028496,37.953285 
z"/>
<path fill="#3FB616" opacity="1.000000" stroke="none" 
	d="
M65.063324,42.217667 
	C60.447659,41.152222 55.858841,39.947464 51.210461,39.051796 
	C42.837036,37.438374 34.434826,35.970036 26.030123,34.525551 
	C22.964472,33.998669 19.857450,33.712502 16.277142,32.822086 
	C12.836297,31.550652 9.813909,30.969858 6.974056,29.903120 
	C5.785437,29.456638 4.984131,27.979053 4.006733,26.970261 
	C4.006733,26.970261 4.012125,27.011229 4.305395,26.956587 
	C5.038273,26.266205 5.477881,25.630465 5.917490,24.994726 
	C7.770387,23.590015 9.623282,22.185303 12.219176,20.818081 
	C14.995661,20.885820 17.029148,20.916071 19.062635,20.946323 
	C19.498575,20.952171 19.934517,20.958021 21.080498,21.002514 
	C26.135563,21.833023 30.469248,22.694809 34.828068,23.401579 
	C42.836895,24.700188 50.876148,25.816202 58.872547,27.184637 
	C64.302483,28.113873 69.680969,29.343794 76.675041,30.762232 
	C72.143257,35.233021 68.603294,38.725342 65.063324,42.217667 
z"/>
<path fill="#3D6733" opacity="1.000000" stroke="none" 
	d="
M49.943680,91.980698 
	C49.974380,92.713638 50.005081,93.446571 49.973446,94.925797 
	C50.947166,99.777687 51.983219,103.883293 53.019276,107.988899 
	C51.440022,110.123901 49.860767,112.258904 47.742744,114.601974 
	C44.965981,109.470879 42.793072,104.102676 40.435852,98.816673 
	C39.956169,97.740990 38.782631,96.974724 37.928955,96.065811 
	C37.928955,96.065811 37.951637,96.026573 38.397087,95.940170 
	C38.226475,94.569138 37.610413,93.284500 37.090523,91.605888 
	C35.452747,86.117043 33.833042,80.979774 31.961185,75.936089 
	C27.999767,65.262115 23.906715,54.636990 19.863157,43.649422 
	C19.355843,42.003708 18.853024,40.700394 17.834307,38.059879 
	C22.470436,39.174820 26.254124,40.084751 30.048079,41.367188 
	C31.309023,44.846123 32.559704,47.952557 33.832333,51.440376 
	C37.158680,60.365688 40.463078,68.909615 43.810028,77.814034 
	C45.882950,82.776588 47.913315,87.378639 49.943680,91.980698 
z"/>
<path fill="#42B519" opacity="1.000000" stroke="none" 
	d="
M23.072130,18.021482 
	C21.349190,13.405178 26.158735,12.079543 27.794453,9.215877 
	C28.825256,7.411232 30.984035,6.124024 34.264503,6.797141 
	C46.144096,9.234704 58.179626,10.907960 70.147751,12.920538 
	C74.926361,13.724117 79.664879,15.174463 84.455978,15.340687 
	C87.280495,15.438683 86.891922,16.607477 86.593750,18.747604 
	C84.026924,21.425449 81.863770,23.672314 79.515701,25.705654 
	C78.748955,26.369629 77.423958,26.929916 76.484428,26.770506 
	C65.982452,24.988646 55.522285,22.959206 45.017017,21.198336 
	C37.729309,19.976788 30.388960,19.069294 23.072130,18.021482 
z"/>
<path fill="#406835" opacity="1.000000" stroke="none" 
	d="
M75.149124,82.671669 
	C73.428047,84.146896 71.734352,85.272400 69.743179,86.595589 
	C68.871170,83.760826 68.209663,81.610374 67.356377,78.745178 
	C67.085342,75.998764 67.006088,73.967102 66.926834,71.935432 
	C66.926834,71.935432 66.991676,71.992310 67.192566,72.326912 
	C68.902000,70.423332 70.410553,68.185150 71.919098,65.946968 
	C71.919098,65.946968 71.987885,66.008926 72.266693,66.207367 
	C72.715347,65.955666 72.885208,65.505531 73.055069,65.055405 
	C73.636780,64.519676 74.218483,63.983948 75.274582,63.176991 
	C79.506599,58.534225 83.286095,54.180927 86.979401,49.755699 
	C87.267586,49.410404 86.953026,48.562054 86.918594,47.947510 
	C86.918594,47.947510 86.993416,48.005238 87.262573,48.187519 
	C87.680489,47.931553 87.829247,47.493301 87.977997,47.055054 
	C89.198036,45.566322 90.418083,44.077591 92.189438,42.373215 
	C95.523087,39.163338 98.305428,36.169106 101.204514,33.049236 
	C101.929054,34.665939 102.453781,35.836784 103.002350,37.383942 
	C105.148102,41.500484 105.962608,45.083939 101.987457,48.263187 
	C101.715080,48.481030 102.035294,49.439816 102.079926,50.054020 
	C102.079926,50.054020 102.024414,50.024017 101.844727,49.695927 
	C101.123695,49.889175 100.582344,50.410511 100.040985,50.931847 
	C98.762413,52.813305 97.483833,54.694759 95.730255,56.893845 
	C95.178116,57.504070 95.100975,57.796665 95.023834,58.089264 
	C95.023834,58.089264 95.007286,58.022114 94.741676,57.782204 
	C92.345718,60.710617 90.215370,63.878937 88.085022,67.047256 
	C88.085022,67.047256 88.001221,66.999390 87.630676,66.762512 
	C87.185951,67.047333 87.111786,67.569046 87.037621,68.090752 
	C87.037621,68.090752 87.019295,68.020569 86.662041,67.797386 
	C86.208237,68.079697 86.111687,68.585197 86.015129,69.090691 
	C86.015129,69.090691 86.017807,69.018547 85.780289,68.874916 
	C85.427528,69.110344 85.312286,69.489395 85.197044,69.868454 
	C81.856865,74.019623 78.516678,78.170784 75.149124,82.671669 
z"/>
<path fill="#0C1A1B" opacity="1.000000" stroke="none" 
	d="
M22.872818,18.250324 
	C30.388960,19.069294 37.729309,19.976788 45.017017,21.198336 
	C55.522285,22.959206 65.982452,24.988646 76.484428,26.770506 
	C77.423958,26.929916 78.748955,26.369629 79.515701,25.705654 
	C81.863770,23.672314 84.026924,21.425449 86.556091,19.115993 
	C87.289200,18.977156 87.728218,18.983957 88.494934,18.992079 
	C85.939621,22.908630 83.183044,26.925272 80.143456,30.714924 
	C75.767189,36.171108 71.185165,41.462250 66.347076,46.872337 
	C65.789917,45.561329 65.576630,44.201813 65.213333,42.529980 
	C68.603294,38.725342 72.143257,35.233021 76.675041,30.762232 
	C69.680969,29.343794 64.302483,28.113873 58.872547,27.184637 
	C50.876148,25.816202 42.836895,24.700188 34.828068,23.401579 
	C30.469248,22.694809 26.135563,21.833023 21.403416,20.949535 
	C21.568695,20.065001 22.121099,19.272081 22.872818,18.250324 
z"/>
<path fill="#E6F1E7" opacity="1.000000" stroke="none" 
	d="
M19.867651,43.991829 
	C23.906715,54.636990 27.999767,65.262115 31.961185,75.936089 
	C33.833042,80.979774 35.452747,86.117043 36.869720,91.605637 
	C36.552738,91.999359 36.111126,92.000153 36.111122,92.000153 
	C33.076611,84.098824 29.995399,76.215027 27.021404,68.290985 
	C24.329288,61.117981 21.754166,53.901073 19.039375,46.029884 
	C18.925831,44.919228 18.900366,44.482212 19.122658,44.023842 
	C19.370415,44.002483 19.867651,43.991829 19.867651,43.991829 
z"/>
<path fill="#E1EEE4" opacity="1.000000" stroke="none" 
	d="
M56.958092,102.335632 
	C54.949970,96.245628 53.090416,90.495598 51.262691,84.735474 
	C51.071556,84.133102 51.068615,83.471031 51.375809,82.478340 
	C54.162884,87.873756 56.552505,93.627487 58.922943,99.335022 
	C60.104702,98.852287 61.074329,98.456207 62.033382,98.045639 
	C62.022808,98.031158 62.002441,98.001755 62.002441,98.001755 
	C61.665138,100.909958 60.605957,103.062950 56.958092,102.335632 
z"/>
<path fill="#E6F2E9" opacity="1.000000" stroke="none" 
	d="
M37.948692,96.452042 
	C38.782631,96.974724 39.956169,97.740990 40.435852,98.816673 
	C42.793072,104.102676 44.965981,109.470879 47.559921,114.881424 
	C47.499290,115.639610 47.082710,116.326424 46.666130,117.013237 
	C45.919960,116.326309 44.806637,115.778008 44.486553,114.930222 
	C42.222645,108.934006 40.121494,102.876343 37.948692,96.452042 
z"/>
<path fill="#F0F8F2" opacity="1.000000" stroke="none" 
	d="
M19.863157,43.649422 
	C19.867651,43.991829 19.370415,44.002483 18.855087,43.944427 
	C17.905369,43.558388 17.470976,43.230408 17.036581,42.902428 
	C16.689520,41.201534 16.342457,39.500645 16.049276,37.417320 
	C19.775410,37.212830 23.447104,37.403870 27.120247,37.561005 
	C28.274786,37.610394 29.433224,37.568710 31.021608,37.568710 
	C31.021608,38.286182 31.021608,39.229885 30.806868,40.568233 
	C30.407356,40.973480 30.222584,40.984081 30.037813,40.994686 
	C26.254124,40.084751 22.470436,39.174820 17.834307,38.059879 
	C18.853024,40.700394 19.355843,42.003708 19.863157,43.649422 
z"/>
<path fill="#E3F0E7" opacity="1.000000" stroke="none" 
	d="
M102.978500,37.007629 
	C102.453781,35.836784 101.929054,34.665939 101.204514,33.049236 
	C98.305428,36.169106 95.523087,39.163338 92.391098,42.120033 
	C94.477295,38.420040 96.913139,34.757580 99.672760,30.949364 
	C103.918747,30.639391 103.291771,33.914227 103.802338,36.564415 
	C103.370193,36.988110 103.174347,36.997871 102.978500,37.007629 
z"/>
<path fill="#E3EFE5" opacity="1.000000" stroke="none" 
	d="
M103.801926,19.988422 
	C108.120125,13.468741 107.809875,8.389230 102.459579,3.966413 
	C103.404053,3.897853 105.332741,3.319479 105.928802,3.967286 
	C110.239845,8.652599 110.051712,15.510595 105.130356,19.907055 
	C104.250381,20.008326 104.026154,19.998373 103.801926,19.988422 
z"/>
<path fill="#E4EFE4" opacity="1.000000" stroke="none" 
	d="
M103.002350,37.383942 
	C103.174347,36.997871 103.370193,36.988110 103.859711,36.962002 
	C108.513496,44.059242 108.513496,44.059242 102.403351,49.950466 
	C102.035294,49.439816 101.715080,48.481030 101.987457,48.263187 
	C105.962608,45.083939 105.148102,41.500484 103.002350,37.383942 
z"/>
<path fill="#5CB33F" opacity="1.000000" stroke="none" 
	d="
M3.689384,27.206247 
	C4.984131,27.979053 5.785437,29.456638 6.974056,29.903120 
	C9.813909,30.969858 12.836297,31.550652 15.885900,32.697212 
	C15.173083,33.049496 14.359346,33.032219 13.272284,33.079048 
	C9.870162,32.635647 6.741368,32.128132 3.149575,31.545517 
	C3.222497,30.200478 3.297266,28.821356 3.689384,27.206247 
z"/>
<path fill="#EBF5EE" opacity="1.000000" stroke="none" 
	d="
M53.432381,107.970016 
	C51.983219,103.883293 50.947166,99.777687 49.951950,95.292458 
	C54.972099,94.928757 53.406647,99.038658 54.560844,101.846214 
	C54.552639,104.003090 54.199062,105.977119 53.432381,107.970016 
z"/>
<path fill="#DDECDF" opacity="1.000000" stroke="none" 
	d="
M88.411247,66.948517 
	C90.215370,63.878937 92.345718,60.710617 94.775436,57.789703 
	C92.962364,60.974663 90.849915,63.912220 88.411247,66.948517 
z"/>
<path fill="#C1EEB0" opacity="1.000000" stroke="none" 
	d="
M18.919298,20.575771 
	C17.029148,20.916071 14.995661,20.885820 12.529415,20.786110 
	C14.323092,20.546173 16.549526,20.375696 18.919298,20.575771 
z"/>
<path fill="#E6F2E9" opacity="1.000000" stroke="none" 
	d="
M36.042885,92.353363 
	C36.111126,92.000153 36.552738,91.999359 36.773544,91.999611 
	C37.610413,93.284500 38.226475,94.569138 38.374428,95.939621 
	C37.262432,94.919174 36.618542,93.812874 36.042885,92.353363 
z"/>
<path fill="#0F1721" opacity="1.000000" stroke="none" 
	d="
M17.034786,43.243450 
	C17.470976,43.230408 17.905369,43.558388 18.607332,43.965782 
	C18.900366,44.482212 18.925831,44.919228 18.880970,45.677818 
	C18.218096,45.194424 17.625544,44.389446 17.034786,43.243450 
z"/>
<path fill="#E8F4EA" opacity="1.000000" stroke="none" 
	d="
M101.392815,24.957821 
	C101.483208,23.905403 101.888847,22.753021 102.694000,21.815914 
	C102.631706,22.973413 102.169891,23.915634 101.392815,24.957821 
z"/>
<path fill="#5CB33F" opacity="1.000000" stroke="none" 
	d="
M5.658542,25.116608 
	C5.477881,25.630465 5.038273,26.266205 4.284750,26.955765 
	C4.447089,26.419220 4.923341,25.828856 5.658542,25.116608 
z"/>
<path fill="#E4EFE4" opacity="1.000000" stroke="none" 
	d="
M100.357071,50.940834 
	C100.582344,50.410511 101.123695,49.889175 101.860397,49.723312 
	C101.594894,50.369129 101.134026,50.659473 100.357071,50.940834 
z"/>
<path fill="#DDECDF" opacity="1.000000" stroke="none" 
	d="
M95.220139,57.992550 
	C95.100975,57.796665 95.178116,57.504070 95.562180,57.199486 
	C95.856689,57.512119 95.705795,57.748230 95.220139,57.992550 
z"/>
<path fill="#DDECDF" opacity="1.000000" stroke="none" 
	d="
M87.306656,68.031128 
	C87.111786,67.569046 87.185951,67.047333 87.673691,66.785950 
	C87.916733,67.354683 87.746208,67.663094 87.306656,68.031128 
z"/>
<path fill="#DDECDF" opacity="1.000000" stroke="none" 
	d="
M86.287582,69.032059 
	C86.111687,68.585197 86.208237,68.079697 86.696709,67.808052 
	C86.912430,68.352409 86.736229,68.662918 86.287582,69.032059 
z"/>
<path fill="#DDECDF" opacity="1.000000" stroke="none" 
	d="
M85.412964,69.818741 
	C85.312286,69.489395 85.427528,69.110344 85.816101,68.879410 
	C86.021103,69.327606 85.867584,69.574768 85.412964,69.818741 
z"/>
<path fill="#E8F4EA" opacity="1.000000" stroke="none" 
	d="
M103.628059,20.317638 
	C104.026154,19.998373 104.250381,20.008326 104.810806,20.036106 
	C104.961990,20.350517 104.776970,20.647099 104.330910,21.004665 
	C103.864647,20.926052 103.659416,20.786453 103.628059,20.317638 
z"/>
<path fill="#E8F4EA" opacity="1.000000" stroke="none" 
	d="
M103.295174,22.032648 
	C103.111488,21.600273 103.199150,21.102161 103.691605,20.817743 
	C103.919762,21.343262 103.743141,21.655087 103.295174,22.032648 
z"/>
<path fill="#E8F4EA" opacity="1.000000" stroke="none" 
	d="
M99.268227,27.060040 
	C99.107887,26.595919 99.183525,26.095951 99.677002,25.813341 
	C100.094856,26.030699 100.039474,26.472370 100.003807,26.692070 
	C99.968140,26.911768 99.504204,27.024195 99.268227,27.060040 
z"/>
<path fill="#E1EEE4" opacity="1.000000" stroke="none" 
	d="
M62.868999,97.144913 
	C62.868999,97.144913 62.848522,97.530853 62.814873,97.721123 
	C62.781223,97.911392 62.389847,97.939751 62.196144,97.970749 
	C62.002441,98.001755 62.022808,98.031158 61.885742,97.776955 
	C62.122116,97.396805 62.495560,97.270859 62.868999,97.144913 
z"/>
<path fill="#E8F4EA" opacity="1.000000" stroke="none" 
	d="
M100.298447,26.028713 
	C100.106895,25.572395 100.182770,25.048336 100.676193,24.781433 
	C100.917793,25.346050 100.741837,25.653511 100.298447,26.028713 
z"/>
<path fill="#3D6632" opacity="1.000000" stroke="none" 
	d="
M63.049072,96.859680 
	C62.495560,97.270859 62.122116,97.396805 61.896317,97.791443 
	C61.074329,98.456207 60.104702,98.852287 58.922943,99.335022 
	C56.552505,93.627487 54.162884,87.873756 51.427334,82.081223 
	C50.900394,81.173508 50.719383,80.304581 50.387650,78.805222 
	C48.541187,73.601715 46.845448,69.028641 45.154221,64.096794 
	C42.466236,56.831253 39.773743,49.924496 37.280018,42.599686 
	C47.375111,41.934170 47.754192,42.187904 50.983013,50.883354 
	C51.259785,51.628708 51.759346,52.291332 52.161282,53.362659 
	C54.435970,59.490959 56.704792,65.248985 58.978928,71.385017 
	C61.316521,78.517014 63.648796,85.270996 65.981071,92.024986 
	C65.063759,93.541473 64.146454,95.057961 63.049072,96.859680 
z"/>
<path fill="#E3EEE4" opacity="1.000000" stroke="none" 
	d="
M43.767471,77.453537 
	C40.463078,68.909615 37.158680,60.365688 34.174042,51.406796 
	C34.721687,50.970264 34.949570,50.948704 35.177456,50.927139 
	C38.129589,58.978252 41.081722,67.029366 43.977303,75.872726 
	C43.869656,76.927834 43.818562,77.190681 43.767471,77.453537 
z"/>
<path fill="#E5F1E6" opacity="1.000000" stroke="none" 
	d="
M37.081245,43.017731 
	C39.773743,49.924496 42.466236,56.831253 45.104790,64.513046 
	C45.018944,65.564964 44.987038,65.841850 44.955132,66.118744 
	C42.319302,59.910995 39.695358,53.698151 37.037895,47.499680 
	C36.488361,46.217915 35.814114,44.989613 35.414783,43.368656 
	C36.115227,43.006340 36.598236,43.012035 37.081245,43.017731 
z"/>
<path fill="#E4F0E5" opacity="1.000000" stroke="none" 
	d="
M37.280018,42.599682 
	C36.598236,43.012035 36.115227,43.006340 35.390686,43.000935 
	C37.950161,42.059471 40.915123,40.005322 43.520729,40.389355 
	C50.675945,41.443939 52.136784,43.776493 52.805267,52.571037 
	C52.602573,52.979801 52.155418,52.992386 52.155418,52.992386 
	C51.759346,52.291332 51.259785,51.628708 50.983013,50.883354 
	C47.754192,42.187904 47.375111,41.934170 37.280018,42.599682 
z"/>
<path fill="#E6F1E8" opacity="1.000000" stroke="none" 
	d="
M66.377502,92.025314 
	C63.648796,85.270996 61.316521,78.517014 59.269554,71.373825 
	C59.748295,70.971191 59.941723,70.957764 60.135155,70.944328 
	C62.697834,77.097076 65.314049,83.228874 67.742622,89.434105 
	C67.992912,90.073616 67.123695,91.151283 66.377502,92.025314 
z"/>
<path fill="#DFEBDF" opacity="1.000000" stroke="none" 
	d="
M60.054916,70.552261 
	C59.941723,70.957764 59.748295,70.971191 59.264240,70.995819 
	C56.704792,65.248985 54.435970,59.490959 52.161285,53.362659 
	C52.155418,52.992386 52.602573,52.979801 52.826202,52.980400 
	C55.358112,58.707394 57.666393,64.433792 60.054916,70.552261 
z"/>
<path fill="#E3EEE4" opacity="1.000000" stroke="none" 
	d="
M86.596268,48.041416 
	C86.953026,48.562054 87.267586,49.410404 86.979401,49.755699 
	C83.286095,54.180927 79.506599,58.534225 75.413429,62.913670 
	C78.809906,57.992825 82.541916,53.064075 86.596268,48.041416 
z"/>
<path fill="#E7F3EA" opacity="1.000000" stroke="none" 
	d="
M43.810028,77.814034 
	C43.818562,77.190681 43.869656,76.927834 43.983730,76.268295 
	C44.703510,76.386490 45.745190,76.778473 45.955170,77.436043 
	C47.407745,81.984886 48.687107,86.589050 49.982895,91.578072 
	C47.913315,87.378639 45.882950,82.776588 43.810028,77.814034 
z"/>
<path fill="#E4EFE5" opacity="1.000000" stroke="none" 
	d="
M44.963547,66.521294 
	C44.987038,65.841850 45.018944,65.564964 45.100281,64.871826 
	C46.845448,69.028641 48.541187,73.601715 50.156601,78.564240 
	C48.374836,74.943741 46.673401,70.933792 44.963547,66.521294 
z"/>
<path fill="#E2EDE1" opacity="1.000000" stroke="none" 
	d="
M35.119801,50.537563 
	C34.949570,50.948704 34.721687,50.970264 34.152092,51.025410 
	C32.559704,47.952557 31.309023,44.846123 30.048079,41.367188 
	C30.222584,40.984081 30.407356,40.973480 30.869707,40.958824 
	C32.452240,44.019169 33.757191,47.083580 35.119801,50.537563 
z"/>
<path fill="#E9F3EC" opacity="1.000000" stroke="none" 
	d="
M66.556396,71.953979 
	C67.006088,73.967102 67.085342,75.998764 67.093025,78.487030 
	C66.044762,76.703598 60.920742,74.960648 66.556396,71.953979 
z"/>
<path fill="#E9F3EC" opacity="1.000000" stroke="none" 
	d="
M71.600693,66.048264 
	C70.410553,68.185150 68.902000,70.423332 67.167130,72.292122 
	C68.387970,69.998337 69.835129,68.073952 71.600693,66.048264 
z"/>
<path fill="#E8F4EA" opacity="1.000000" stroke="none" 
	d="
M89.381927,37.982235 
	C90.564125,36.093872 92.099747,34.234459 93.847153,32.724564 
	C92.617752,34.719780 91.176559,36.365482 89.381927,37.982235 
z"/>
<path fill="#E8F4EA" opacity="1.000000" stroke="none" 
	d="
M96.399223,30.954796 
	C96.871643,29.510406 97.662354,27.966108 98.765076,26.740158 
	C98.290565,28.323967 97.504036,29.589428 96.399223,30.954796 
z"/>
<path fill="#E9F3EC" opacity="1.000000" stroke="none" 
	d="
M72.769089,65.039383 
	C72.885208,65.505531 72.715347,65.955666 72.227493,66.180817 
	C72.100693,65.645012 72.291901,65.334198 72.769089,65.039383 
z"/>
<path fill="#E3EEE4" opacity="1.000000" stroke="none" 
	d="
M87.705643,47.053833 
	C87.829247,47.493301 87.680489,47.931553 87.221603,48.162281 
	C87.085419,47.654045 87.259346,47.353329 87.705643,47.053833 
z"/>
<path fill="#E8F4EA" opacity="1.000000" stroke="none" 
	d="
M94.299355,33.031723 
	C94.108414,32.568478 94.186035,32.039730 94.678680,31.776241 
	C94.918442,32.349739 94.743187,32.657978 94.299355,33.031723 
z"/>
<path fill="#E8F4EA" opacity="1.000000" stroke="none" 
	d="
M95.306595,32.028969 
	C95.103035,31.567389 95.166504,31.039820 95.662369,30.776119 
	C95.921051,31.347649 95.747330,31.655315 95.306595,32.028969 
z"/>
</svg>